<svg width="1390" height="1252" viewBox="0 0 1390 1252" fill="none" xmlns="http://www.w3.org/2000/svg">
<rect width="1389.3" height="1252" fill="white"/>
<path d="M648.595 818.284C651.45 811.259 648.071 803.25 641.046 800.394C634.021 797.538 626.011 800.918 623.156 807.943L648.595 818.284ZM493.487 972.791L485.125 961.901C481.567 964.633 479.568 968.931 479.771 973.412C479.973 977.893 482.352 981.992 486.142 984.392L493.487 972.791ZM695.882 1100.94L688.537 1112.54C692.895 1115.3 698.431 1115.38 702.871 1112.76L695.882 1100.94ZM1000.49 904.14L991.247 893.988L1000.49 904.14ZM1219.67 593.937L1206.74 589.313L1219.67 593.937ZM838.873 171.163C831.468 172.796 826.789 180.123 828.422 187.528C830.055 194.933 837.381 199.612 844.786 197.979L838.873 171.163ZM279.905 223.728L288.62 234.337L279.905 223.728ZM427.887 932.617L419.135 943.197C424.921 947.983 433.479 947.234 438.345 941.514L427.887 932.617ZM459.416 870.068L473.091 871.289L459.416 870.068ZM405.003 713.441L408.436 700.147L405.003 713.441ZM296.686 682.421L286.617 691.756C288.125 693.383 290.005 694.619 292.095 695.361L296.686 682.421ZM241.256 537.49L235.622 524.969C231.735 526.718 228.881 530.173 227.897 534.32L241.256 537.49ZM312.451 505.453L318.085 517.974C321.197 516.574 323.675 514.065 325.038 510.937L312.451 505.453ZM362.286 434.259L353.946 423.352L362.286 434.259ZM732.496 482.569L719.073 485.456L732.496 482.569ZM712.663 682.421L723.587 690.739L712.663 682.421ZM1000.49 400.187L995.253 387.495L1000.49 400.187ZM1123.05 454.091L1109.71 457.362L1123.05 454.091ZM1021.34 663.606L1033.09 670.71L1021.34 663.606ZM992.355 779.55L1005.74 776.481L992.355 779.55ZM977.607 924.227L986.477 934.708L977.607 924.227ZM623.156 807.943C599.233 866.794 553.329 909.53 485.125 961.901L501.849 983.682C570.337 931.092 621.665 884.531 648.595 818.284L623.156 807.943ZM486.142 984.392L688.537 1112.54L703.227 1089.34L500.832 961.191L486.142 984.392ZM1009.74 914.293C1110.94 822.143 1193.94 706.618 1232.6 598.562L1206.74 589.313C1169.95 692.164 1089.98 804.084 991.247 893.988L1009.74 914.293ZM1232.6 598.562C1244.67 564.815 1249.26 516.429 1244.09 464.607C1238.9 412.598 1223.76 355.935 1195.25 305.633C1166.69 255.232 1124.55 210.986 1065.49 184.716C1006.41 158.435 931.662 150.703 838.873 171.163L844.786 197.979C933.034 178.52 1001.63 186.361 1054.33 209.806C1107.05 233.26 1145.13 272.889 1171.36 319.173C1197.65 365.555 1211.88 418.385 1216.76 467.334C1221.67 516.471 1217.04 560.511 1206.74 589.313L1232.6 598.562ZM559.578 185.749C508.614 157.853 379.738 123.953 271.189 213.118L288.62 234.337C385.11 155.078 500.735 184.845 546.392 209.837L559.578 185.749ZM271.189 213.118C137.914 322.594 137.333 450.868 146.261 524.398L173.522 521.088C165.16 452.229 165.597 335.392 288.62 234.337L271.189 213.118ZM146.261 524.398C150.884 562.463 173.139 628.976 216.778 704.603C260.588 780.528 326.442 866.513 419.135 943.197L436.639 922.038C346.769 847.689 282.948 764.333 240.563 690.878C198.006 617.125 177.545 554.217 173.522 521.088L146.261 524.398ZM438.345 941.514C443.695 935.226 451.583 924.571 458.468 912.378C465.201 900.454 471.813 885.608 473.091 871.289L445.74 868.847C444.984 877.31 440.663 888.061 434.556 898.876C428.6 909.424 421.741 918.652 417.429 923.721L438.345 941.514ZM473.091 871.289C474.243 858.395 480.152 821.818 475.573 786.736C470.956 751.364 454.886 712.144 408.436 700.147L401.569 726.735C431.908 734.571 444.315 759.426 448.343 790.29C452.409 821.443 447.131 853.264 445.74 868.847L473.091 871.289ZM408.436 700.147C347.166 684.322 311.234 673.014 301.278 669.481L292.095 695.361C303.158 699.287 339.979 710.828 401.569 726.735L408.436 700.147ZM306.755 673.086C296.004 661.491 280.077 638.53 268.295 612.667C256.296 586.327 250.015 560.05 254.616 540.66L227.897 534.32C221.107 562.936 230.675 596.326 243.305 624.051C256.153 652.254 273.636 677.755 286.617 691.756L306.755 673.086ZM246.891 550.011L318.085 517.974L306.816 492.932L235.622 524.969L246.891 550.011ZM325.038 510.937C328.429 503.153 335.321 489.996 343.88 476.895C352.597 463.55 362.161 451.64 370.627 445.166L353.946 423.352C341.664 432.744 330.039 447.871 320.89 461.876C311.582 476.125 303.931 490.632 299.863 499.969L325.038 510.937ZM370.627 445.166C380.968 437.257 397.433 432.024 417.737 427.363C436.705 423.009 459.621 419.08 477.429 413.232L468.862 387.142C452.6 392.482 433.053 395.673 411.593 400.599C391.469 405.219 369.539 411.428 353.946 423.352L370.627 445.166ZM477.429 413.232C490.532 408.93 498.6 399.396 503.219 388.725C507.668 378.448 509.187 366.631 509.561 355.716C509.94 344.654 509.163 333.408 508.352 323.866C507.495 313.78 506.709 306.48 506.709 301.533H479.248C479.248 308.027 480.242 317.382 480.99 326.19C481.784 335.544 482.437 345.434 482.117 354.776C481.792 364.266 480.483 372.123 478.018 377.817C475.724 383.117 472.795 385.851 468.862 387.142L477.429 413.232ZM506.709 301.533C506.709 304.152 504.988 306.084 504.087 306.637C503.911 306.745 505.033 306.096 508.561 305.844C515.373 305.357 526.097 306.675 539.025 310.252C564.911 317.416 594.576 332.195 612.084 351.049L632.207 332.364C610.049 308.502 575.131 291.751 546.349 283.786C531.944 279.8 517.813 277.653 506.605 278.453C501.122 278.845 494.942 280.027 489.717 283.236C483.766 286.89 479.248 293.192 479.248 301.533H506.709ZM612.084 351.049C632.485 373.02 657.231 397.631 678.639 422.405C689.229 434.661 698.601 446.516 705.77 457.501C713.046 468.65 717.478 478.043 719.073 485.456L745.919 479.682C743.29 467.458 736.775 454.763 728.766 442.492C720.651 430.058 710.4 417.161 699.417 404.451C677.676 379.291 651.47 353.109 632.207 332.364L612.084 351.049ZM719.073 485.456C724.02 508.464 729.412 543.419 728.496 579.091C727.571 615.092 720.267 649.771 701.74 674.103L723.587 690.739C747.267 659.642 754.965 618.041 755.947 579.797C756.938 541.224 751.142 503.968 745.919 479.682L719.073 485.456ZM701.74 674.103C690.542 688.809 678.128 703.056 664.935 714.411C651.667 725.83 638.321 733.705 625.282 736.737C612.724 739.656 599.729 738.281 585.908 729.84C571.662 721.14 555.885 704.502 539.498 675.642L515.619 689.201C533.303 720.347 551.943 741.274 571.595 753.276C591.673 765.538 612.058 768.004 631.501 763.484C650.462 759.075 667.737 748.229 682.847 735.224C698.032 722.156 711.754 706.279 723.587 690.739L701.74 674.103ZM539.498 675.642C524.78 649.72 524.697 623.104 534.642 596.75C544.757 569.946 565.288 543.522 591.43 519.978C617.47 496.525 648.351 476.591 678.038 462.565C708.011 448.405 735.489 440.87 754.871 440.87V413.409C729.694 413.409 697.96 422.782 666.308 437.736C634.373 452.823 601.218 474.207 573.053 499.573C544.988 524.848 521.143 554.744 508.95 587.055C496.587 619.818 496.266 655.116 515.619 689.201L539.498 675.642ZM754.871 440.87C802.129 440.87 827.503 447.976 843.903 454.363C848.115 456.004 851.839 457.638 855.415 459.228C858.883 460.769 862.488 462.396 865.947 463.745C873.15 466.554 880.982 468.686 890.463 467.756L887.783 440.427C884.297 440.769 881.068 440.167 875.924 438.161C873.209 437.102 870.318 435.801 866.569 434.135C862.928 432.516 858.714 430.662 853.869 428.775C834.035 421.05 805.251 413.409 754.871 413.409V440.87ZM890.463 467.756C899.338 466.886 909.822 462.965 919.79 458.483C930.129 453.835 941.426 447.87 952.349 441.847C963.11 435.913 974.331 429.457 983.511 424.335C993.126 418.97 1000.72 414.948 1005.73 412.879L995.253 387.495C988.513 390.277 979.55 395.099 970.131 400.354C960.279 405.851 949.99 411.788 939.089 417.8C928.349 423.722 917.832 429.256 908.531 433.437C898.859 437.786 891.875 440.026 887.783 440.427L890.463 467.756ZM1005.73 412.879C1022.1 406.124 1038.6 399.341 1052.94 396.414C1068.04 393.334 1074.86 395.697 1077.99 399.394L1098.95 381.656C1085.3 365.521 1064.14 366.104 1047.46 369.508C1030.02 373.064 1010.92 381.029 995.253 387.495L1005.73 412.879ZM1077.99 399.394C1094.01 418.338 1103.79 433.235 1109.71 457.362L1136.38 450.821C1129.08 421.044 1116.48 402.378 1098.95 381.656L1077.99 399.394ZM1109.71 457.362C1115.72 481.877 1119.32 504.323 1118.56 523.644C1117.81 542.823 1112.83 557.836 1102.72 568.928L1123.03 587.418C1138.86 570.033 1145.09 547.977 1146 524.72C1146.91 501.606 1142.62 476.25 1136.38 450.821L1109.71 457.362ZM1102.72 568.928C1090.85 581.971 1075.82 591.95 1058.23 605.452C1041.26 618.477 1023.21 633.972 1009.59 656.501L1033.09 670.71C1044.02 652.638 1058.77 639.656 1074.95 627.234C1090.51 615.29 1108.97 602.853 1123.03 587.418L1102.72 568.928ZM1009.59 656.501C997.046 677.249 985.302 694.357 979.138 712.85C972.574 732.542 972.247 753.298 978.972 782.62L1005.74 776.481C999.749 750.373 1000.69 735.023 1005.19 721.534C1010.09 706.845 1019.19 693.696 1033.09 670.71L1009.59 656.501ZM702.871 1112.76C774.576 1070.35 881.34 1023.68 986.477 934.708L968.738 913.746C865.933 1000.74 764.049 1044.68 688.893 1089.12L702.871 1112.76ZM986.477 934.708C994.234 928.144 1001.99 921.344 1009.74 914.293L991.247 893.988C983.755 900.81 976.248 907.391 968.738 913.746L986.477 934.708ZM978.972 782.62C982.958 800 989.738 824.577 990.513 849.951C991.285 875.196 985.965 898.178 968.405 914.038L986.81 934.417C1012.98 910.78 1018.85 878.028 1017.96 849.112C1017.08 820.323 1009.37 792.31 1005.74 776.481L978.972 782.62Z" fill="#36D399"/>
<path d="M562.149 180.725C567.28 172.013 578.502 169.11 587.214 174.24L637.57 203.897C653.058 213.019 658.219 232.969 649.098 248.457L644.741 255.854C635.619 271.342 615.669 276.503 600.181 267.382L549.825 237.725C541.113 232.594 538.21 221.373 543.341 212.66L562.149 180.725Z" fill="#36D399"/>
<path d="M846.491 197.77C852.577 205.844 850.964 217.323 842.89 223.408L796.22 258.581C781.865 269.4 761.458 266.533 750.64 252.178L745.473 245.323C734.655 230.968 737.522 210.562 751.876 199.743L798.546 164.57C806.621 158.485 818.099 160.097 824.185 168.172L846.491 197.77Z" fill="#36D399"/>
<circle cx="834.202" cy="539.525" r="22.8838" fill="#36D399"/>
<circle cx="834.202" cy="539.525" r="22.8838" fill="#36D399"/>
<path d="M1120.5 440.87C1120.5 462.215 1083.39 458.669 1056.43 458.669C1029.47 458.669 1017.27 420.007 1017.27 398.662C1017.27 377.318 1029.47 381.372 1056.43 381.372C1083.39 381.372 1120.5 419.525 1120.5 440.87Z" fill="#36D399"/>
<path d="M1120.5 440.87C1120.5 462.215 1083.39 458.669 1056.43 458.669C1029.47 458.669 1017.27 420.007 1017.27 398.662C1017.27 377.318 1029.47 381.372 1056.43 381.372C1083.39 381.372 1120.5 419.525 1120.5 440.87Z" fill="#36D399"/>
<circle cx="395.849" cy="504.944" r="22.8838" fill="#36D399"/>
<circle cx="395.849" cy="504.944" r="22.8838" fill="#36D399"/>
</svg>
