<svg width="27" height="29" viewBox="0 0 27 29" fill="none" xmlns="http://www.w3.org/2000/svg">
<ellipse cx="13.5" cy="14.9" rx="13.5" ry="14.1" fill="black"/>
<ellipse cx="10.4354" cy="8.6232" rx="2.76311" ry="4.42083" transform="rotate(-9.70032 10.4354 8.6232)" fill="white"/>
<ellipse cx="2.76311" cy="4.42083" rx="2.76311" ry="4.42083" transform="matrix(-0.985703 -0.168495 -0.168495 0.985703 20.5822 4.73114)" fill="white"/>
<ellipse cx="5.81429" cy="14.3509" rx="2.76311" ry="4.17461" transform="rotate(-33.6795 5.81429 14.3509)" fill="white"/>
<ellipse cx="2.76311" cy="4.17461" rx="2.76311" ry="4.17461" transform="matrix(-0.832153 -0.554547 -0.554547 0.832153 26.349 12.4098)" fill="white"/>
<path d="M13.8141 14.5339C14.7504 14.5049 15.5637 15.0527 16.1188 15.632C16.4446 15.9939 19.2923 19.2157 19.6543 19.6381C20.0163 20.0604 20.9454 21.2912 21.1626 22.4013C21.3798 23.5114 21.1144 24.2234 20.137 24.9232C19.3551 25.4831 17.8242 25.0519 17.1565 24.7664C16.8106 24.5049 15.8871 23.9338 14.9604 23.7407C13.802 23.4994 12.1967 23.8181 11.437 24.344C9.8683 25.43 8.75817 25.2611 8.15484 25.2008C7.55151 25.1404 6.76718 24.3923 6.38105 23.5718C5.99492 22.7512 6.89992 20.5069 7.88938 19.6381C8.87884 18.7693 10.5199 16.6335 11.1353 15.9819C11.7507 15.3303 12.6436 14.5701 13.8141 14.5339Z" fill="white"/>
</svg>
